<?xml version="1.0" encoding="utf-8"?>
<!-- Generator: Adobe Illustrator 16.0.0, SVG Export Plug-In . SVG Version: 6.00 Build 0)  -->
<!DOCTYPE svg PUBLIC "-//W3C//DTD SVG 1.1//EN" "http://www.w3.org/Graphics/SVG/1.1/DTD/svg11.dtd">
<svg version="1.1" id="Layer_1" xmlns="http://www.w3.org/2000/svg" xmlns:xlink="http://www.w3.org/1999/xlink" x="0px" y="0px"
	 width="850.39px" height="850.39px" viewBox="0 0 850.39 850.39" enable-background="new 0 0 850.39 850.39" xml:space="preserve">
<g>
	<g>
		<path fill="#F68B1F" d="M343.156,491.9h-2.287v-3.096h-8.04v3.096h-2.287v-6.307c0-0.92,0.158-1.768,0.476-2.541
			c0.316-0.775,0.756-1.441,1.318-1.998c0.563-0.557,1.229-0.99,1.997-1.301s1.606-0.467,2.516-0.467h5.155
			c0.158,0,0.308,0.029,0.448,0.088s0.264,0.141,0.369,0.246c0.106,0.105,0.188,0.229,0.247,0.369s0.088,0.291,0.088,0.449V491.9z
			 M332.829,486.518h8.04v-4.943h-4.021c-0.07,0-0.218,0.01-0.444,0.031c-0.226,0.02-0.486,0.07-0.783,0.152
			c-0.295,0.084-0.607,0.209-0.936,0.379c-0.329,0.17-0.631,0.404-0.906,0.703c-0.275,0.301-0.504,0.674-0.682,1.123
			c-0.18,0.447-0.269,0.992-0.269,1.631V486.518z"/>
		<path fill="#F68B1F" d="M358.316,494.873h-2.287v-9.279c0-0.299-0.076-0.525-0.229-0.682c-0.152-0.154-0.384-0.232-0.694-0.232
			h-4.126c-0.281,0-0.504,0.086-0.668,0.26c-0.164,0.172-0.246,0.391-0.246,0.654v3.096c0,0.301,0.078,0.529,0.237,0.688
			c0.158,0.158,0.39,0.236,0.694,0.236h4.108v2.287h-4.126c-0.316,0-0.662-0.055-1.037-0.166c-0.376-0.111-0.723-0.295-1.043-0.551
			c-0.319-0.254-0.586-0.586-0.801-0.994c-0.214-0.406-0.32-0.906-0.32-1.5v-3.096c0-0.217,0.024-0.445,0.074-0.686
			s0.128-0.48,0.233-0.717c0.105-0.238,0.241-0.465,0.409-0.682c0.167-0.217,0.369-0.408,0.607-0.572
			c0.236-0.164,0.511-0.297,0.822-0.396c0.311-0.1,0.662-0.148,1.055-0.148h4.126c0.217,0,0.446,0.025,0.69,0.074
			c0.243,0.051,0.484,0.127,0.721,0.232c0.238,0.105,0.465,0.242,0.682,0.41c0.217,0.166,0.408,0.369,0.572,0.607
			c0.164,0.236,0.297,0.512,0.396,0.822s0.148,0.662,0.148,1.055V494.873z"/>
		<path fill="#F68B1F" d="M373.275,490.748c0,0.164-0.029,0.316-0.088,0.457c-0.059,0.143-0.139,0.264-0.242,0.365
			c-0.103,0.104-0.223,0.184-0.36,0.242s-0.286,0.088-0.444,0.088h-5.172c-0.281,0-0.582-0.031-0.902-0.096
			c-0.319-0.064-0.635-0.17-0.945-0.312c-0.311-0.145-0.611-0.326-0.901-0.545c-0.29-0.221-0.544-0.488-0.761-0.801
			c-0.217-0.314-0.392-0.676-0.523-1.086c-0.132-0.412-0.197-0.875-0.197-1.391v-5.277h2.286v5.277c0,0.299,0.052,0.566,0.154,0.805
			s0.241,0.441,0.417,0.611c0.177,0.17,0.383,0.301,0.621,0.391c0.237,0.092,0.494,0.137,0.77,0.137h4.002v-7.221h2.287V490.748z"/>
		<path fill="#F68B1F" d="M387.707,488.752c0,0.316-0.057,0.658-0.168,1.025c-0.111,0.365-0.291,0.705-0.541,1.02
			c-0.249,0.314-0.574,0.576-0.977,0.787c-0.4,0.211-0.889,0.316-1.464,0.316h-4.126c-0.316,0-0.658-0.055-1.024-0.166
			s-0.706-0.293-1.021-0.541c-0.313-0.25-0.576-0.576-0.787-0.977c-0.211-0.402-0.316-0.891-0.316-1.465
			c0-0.316,0.056-0.66,0.167-1.029s0.292-0.711,0.541-1.025c0.249-0.312,0.575-0.576,0.977-0.787s0.89-0.316,1.464-0.316h4.126
			v2.182h-4.126c-0.311,0-0.551,0.096-0.721,0.285c-0.17,0.191-0.256,0.428-0.256,0.709c0,0.299,0.099,0.531,0.295,0.699
			c0.197,0.168,0.43,0.25,0.699,0.25h4.108c0.311,0,0.552-0.094,0.722-0.281s0.255-0.422,0.255-0.703v-3.193
			c0-0.299-0.093-0.537-0.277-0.713s-0.418-0.264-0.699-0.264h-5.022v-2.172h5.022c0.317,0,0.658,0.055,1.024,0.166
			c0.367,0.111,0.707,0.293,1.021,0.541c0.313,0.25,0.576,0.576,0.788,0.977c0.211,0.402,0.316,0.891,0.316,1.465V488.752z"/>
		<path fill="#F68B1F" d="M402.612,488.689c0,0.395-0.05,0.748-0.149,1.061c-0.1,0.314-0.231,0.59-0.396,0.826
			c-0.164,0.238-0.354,0.441-0.57,0.607c-0.218,0.168-0.445,0.305-0.683,0.41s-0.477,0.182-0.717,0.232s-0.47,0.074-0.687,0.074
			h-4.125v-2.287h4.125c0.305,0,0.534-0.078,0.687-0.236s0.229-0.387,0.229-0.688v-3.078c0-0.316-0.078-0.551-0.234-0.703
			c-0.154-0.152-0.382-0.229-0.682-0.229h-4.107c-0.311,0-0.545,0.078-0.703,0.232c-0.158,0.156-0.238,0.383-0.238,0.682v9.279
			h-2.287v-9.279c0-0.393,0.051-0.744,0.15-1.055s0.232-0.586,0.4-0.822c0.166-0.238,0.358-0.441,0.576-0.607
			c0.217-0.168,0.443-0.305,0.682-0.41c0.236-0.105,0.477-0.182,0.721-0.232c0.243-0.049,0.471-0.074,0.682-0.074h4.125
			c0.394,0,0.745,0.049,1.057,0.148c0.311,0.1,0.584,0.232,0.822,0.396c0.237,0.164,0.439,0.355,0.606,0.572
			s0.304,0.443,0.409,0.682c0.105,0.236,0.184,0.477,0.232,0.717c0.051,0.24,0.075,0.469,0.075,0.686V488.689z"/>
		<path fill="#F68B1F" d="M417.377,488.689c0,0.395-0.049,0.748-0.148,1.061c-0.1,0.314-0.232,0.59-0.396,0.826
			c-0.164,0.238-0.355,0.441-0.572,0.607c-0.217,0.168-0.443,0.305-0.682,0.41c-0.236,0.105-0.478,0.182-0.721,0.232
			c-0.244,0.051-0.474,0.074-0.69,0.074h-4.126c-0.316,0-0.662-0.055-1.037-0.166c-0.376-0.111-0.723-0.295-1.043-0.551
			c-0.319-0.254-0.586-0.586-0.801-0.994c-0.214-0.406-0.32-0.906-0.32-1.5v-3.096c0-0.586,0.106-1.084,0.32-1.49
			c0.215-0.408,0.481-0.74,0.801-0.994c0.32-0.256,0.667-0.439,1.043-0.551c0.375-0.111,0.721-0.166,1.037-0.166h4.126
			c0.587,0,1.085,0.105,1.495,0.316s0.742,0.477,0.994,0.795c0.252,0.32,0.436,0.668,0.55,1.043s0.171,0.725,0.171,1.047V488.689z
			 M415.09,485.611c0-0.316-0.078-0.551-0.236-0.703s-0.388-0.229-0.687-0.229h-4.108c-0.305,0-0.536,0.078-0.694,0.232
			c-0.159,0.156-0.237,0.383-0.237,0.682v3.096c0,0.301,0.078,0.529,0.237,0.688c0.158,0.158,0.39,0.236,0.694,0.236h4.108
			c0.311,0,0.542-0.078,0.694-0.236s0.229-0.387,0.229-0.688V485.611z"/>
		<path fill="#F68B1F" d="M432.327,491.9h-2.286v-5.277c0-0.299-0.053-0.566-0.154-0.805c-0.104-0.238-0.242-0.441-0.418-0.611
			s-0.383-0.301-0.62-0.391c-0.237-0.092-0.494-0.137-0.771-0.137h-4.002v7.221h-2.287v-8.373c0-0.158,0.029-0.307,0.088-0.445
			c0.059-0.137,0.141-0.258,0.246-0.359c0.106-0.104,0.229-0.184,0.37-0.242s0.29-0.088,0.448-0.088h5.154
			c0.288,0,0.592,0.031,0.911,0.096s0.636,0.17,0.95,0.312c0.313,0.145,0.612,0.326,0.896,0.545
			c0.285,0.221,0.537,0.488,0.757,0.801c0.22,0.314,0.395,0.676,0.523,1.086c0.129,0.412,0.193,0.875,0.193,1.391V491.9z"/>
		<path fill="#F68B1F" d="M439.123,480.439h-2.287v-2.066h2.287V480.439z M439.123,491.9h-2.287v-9.508h2.287V491.9z"/>
		<path fill="#F68B1F" d="M452.991,491.9h-6.201c-0.317,0-0.663-0.055-1.038-0.166s-0.723-0.295-1.043-0.551
			c-0.318-0.254-0.586-0.586-0.8-0.994c-0.214-0.406-0.321-0.906-0.321-1.5v-3.096c0-0.217,0.025-0.445,0.075-0.686
			s0.128-0.48,0.233-0.717c0.105-0.238,0.241-0.465,0.408-0.682c0.168-0.217,0.369-0.408,0.607-0.572
			c0.237-0.164,0.512-0.297,0.822-0.396s0.662-0.148,1.056-0.148h6.201v2.287h-6.201c-0.3,0-0.526,0.076-0.682,0.229
			s-0.233,0.387-0.233,0.703v3.078c0,0.301,0.079,0.529,0.238,0.688c0.158,0.158,0.389,0.236,0.694,0.236h6.184V491.9z"/>
		<path fill="#F68B1F" d="M466.543,488.689c0,0.395-0.051,0.748-0.15,1.061c-0.1,0.314-0.231,0.59-0.396,0.826
			c-0.164,0.238-0.354,0.441-0.571,0.607c-0.217,0.168-0.444,0.305-0.682,0.41c-0.238,0.105-0.479,0.182-0.722,0.232
			s-0.474,0.074-0.69,0.074h-6.193v-2.287h6.176c0.311,0,0.545-0.078,0.703-0.236s0.238-0.387,0.238-0.688
			c-0.029-0.609-0.338-0.914-0.924-0.914h-3.545c-0.504,0-0.933-0.088-1.284-0.264c-0.353-0.176-0.638-0.396-0.858-0.66
			c-0.219-0.264-0.377-0.549-0.475-0.854c-0.097-0.305-0.145-0.588-0.145-0.854c0-0.51,0.09-0.939,0.272-1.287
			c0.182-0.35,0.41-0.633,0.687-0.85c0.275-0.217,0.574-0.373,0.896-0.471c0.322-0.096,0.625-0.145,0.906-0.145h5.621v2.287h-5.604
			c-0.117,0-0.21,0.012-0.277,0.039c-0.067,0.025-0.117,0.062-0.149,0.105c-0.032,0.045-0.052,0.092-0.058,0.141
			c-0.006,0.051-0.008,0.098-0.008,0.145c0.006,0.094,0.023,0.168,0.053,0.221s0.065,0.092,0.109,0.115s0.094,0.035,0.15,0.039
			c0.055,0.002,0.109,0.004,0.162,0.004h3.545c0.586,0,1.085,0.105,1.495,0.316c0.411,0.211,0.742,0.477,0.994,0.797
			c0.252,0.318,0.436,0.666,0.55,1.041C466.485,488.02,466.543,488.367,466.543,488.689z"/>
		<path fill="#F68B1F" d="M490.777,491.9h-10.432c-0.164,0-0.316-0.029-0.458-0.088c-0.141-0.059-0.263-0.139-0.364-0.242
			c-0.104-0.102-0.184-0.223-0.242-0.365c-0.059-0.141-0.088-0.293-0.088-0.457v-11.461h2.287v10.326h9.297V491.9z"/>
		<path fill="#F68B1F" d="M504.487,488.752c0,0.316-0.056,0.658-0.167,1.025c-0.111,0.365-0.292,0.705-0.541,1.02
			c-0.25,0.314-0.574,0.576-0.977,0.787c-0.401,0.211-0.89,0.316-1.465,0.316h-4.125c-0.316,0-0.658-0.055-1.025-0.166
			c-0.365-0.111-0.706-0.293-1.02-0.541c-0.314-0.25-0.576-0.576-0.787-0.977c-0.211-0.402-0.316-0.891-0.316-1.465
			c0-0.316,0.055-0.66,0.166-1.029s0.292-0.711,0.541-1.025c0.25-0.312,0.575-0.576,0.977-0.787
			c0.402-0.211,0.891-0.316,1.465-0.316h4.125v2.182h-4.125c-0.311,0-0.551,0.096-0.721,0.285c-0.171,0.191-0.256,0.428-0.256,0.709
			c0,0.299,0.098,0.531,0.295,0.699c0.196,0.168,0.43,0.25,0.699,0.25h4.107c0.311,0,0.552-0.094,0.722-0.281
			s0.255-0.422,0.255-0.703v-3.193c0-0.299-0.092-0.537-0.277-0.713c-0.184-0.176-0.418-0.264-0.699-0.264h-5.021v-2.172h5.021
			c0.317,0,0.658,0.055,1.025,0.166c0.366,0.111,0.707,0.293,1.02,0.541c0.314,0.25,0.576,0.576,0.788,0.977
			c0.211,0.402,0.316,0.891,0.316,1.465V488.752z"/>
		<path fill="#F68B1F" d="M519.393,488.689c0,0.219-0.024,0.447-0.074,0.688s-0.127,0.479-0.232,0.717
			c-0.105,0.236-0.242,0.465-0.41,0.682c-0.166,0.217-0.369,0.408-0.606,0.576c-0.237,0.166-0.512,0.301-0.822,0.4
			c-0.312,0.1-0.663,0.148-1.056,0.148h-4.125c-0.217,0-0.446-0.023-0.687-0.074c-0.241-0.051-0.479-0.127-0.717-0.232
			s-0.465-0.242-0.682-0.41c-0.218-0.166-0.409-0.369-0.576-0.607c-0.167-0.236-0.301-0.512-0.4-0.826
			c-0.1-0.312-0.149-0.666-0.149-1.061v-10.316h2.287v10.316c0,0.283,0.088,0.506,0.264,0.674s0.396,0.25,0.66,0.25h4.125
			c0.287,0,0.512-0.084,0.673-0.254s0.242-0.393,0.242-0.67v-3.096c0-0.287-0.085-0.512-0.255-0.672
			c-0.17-0.162-0.391-0.242-0.66-0.242h-4.125v-2.287h4.125c0.217,0,0.445,0.025,0.686,0.074c0.24,0.051,0.48,0.127,0.717,0.232
			c0.238,0.105,0.465,0.242,0.683,0.41c0.217,0.166,0.407,0.369,0.571,0.607c0.164,0.236,0.297,0.512,0.396,0.822
			s0.148,0.662,0.148,1.055V488.689z"/>
	</g>
	<g>
		<g>
			<path fill="#50B848" d="M489.334,386.21c-0.112,0-0.224,0.012-0.331,0.031c-0.029,0.008-0.059,0.014-0.087,0.02
				c-0.013,0.002-0.024,0.004-0.036,0.008c-3.473,0.723-7.002,1.289-10.58,1.693h-0.006c-0.458,0.062-0.923,0.113-1.388,0.148
				c-0.012,0.002-0.023,0.004-0.034,0.004c-3.874,0.391-7.803,0.59-11.78,0.59c-17.551,0-34.193-3.889-49.114-10.852
				c0-0.002-0.002-0.002-0.004-0.004c-1.399-0.654-2.785-1.334-4.154-2.043c-0.003,0-0.006,0-0.01-0.004
				c-2.86-1.098-5.965-1.699-9.213-1.699c-1.279,0-2.536,0.094-3.764,0.273c-3.274,0.48-6.349,1.576-9.1,3.166
				c-0.145,0.09-0.289,0.182-0.433,0.273c-0.688,0.438-1.362,0.885-2.024,1.342c-13.064,8.996-21.39,21.617-21.959,35.658
				c6.648,0.205,13.311,0.176,19.967-0.09c11.969-0.482,23.926-1.74,35.755-3.824s23.533-4.992,34.966-8.795
				c11.431-3.805,22.592-8.502,33.261-14.199c-10.379,6.211-21.346,11.473-32.661,15.861c-11.32,4.389-22.994,7.904-34.867,10.598
				c-11.874,2.693-23.949,4.562-36.109,5.648c-6.661,0.592-13.348,0.951-20.043,1.076c0.474,3.766,1.505,7.412,3.036,10.896
				c0.365,0.832,0.761,1.656,1.183,2.471c4.323,7.916,12.691,13.307,22.327,13.395c0.662-0.014,1.321-0.031,1.979-0.057
				c2.433-0.09,4.847-0.254,7.238-0.492c8.088-0.803,15.931-2.432,23.444-4.807c24.878-7.855,46.142-23.855,60.661-44.871
				c0-0.002,0.002-0.004,0.004-0.006c0.334-0.531,0.688-1.053,1.061-1.561c0.003-0.004,0.007-0.008,0.01-0.012
				c1.528-2.293,2.979-4.643,4.345-7.047c0-0.002,0.001-0.002,0.001-0.002c0.023-0.041,0.048-0.082,0.069-0.123
				c0.006-0.008,0.011-0.018,0.015-0.025c0.126-0.246,0.195-0.525,0.195-0.82c0-0.379-0.116-0.732-0.315-1.023
				C490.512,386.526,489.961,386.21,489.334,386.21z"/>
			<path fill="#F68B1F" d="M400.788,451.171c0-0.088,0.003-0.176,0.005-0.266c-0.005,0.002-0.01,0.002-0.014,0.002
				c-0.475,0.043-0.949,0.084-1.426,0.121c-0.102,0.008-0.202,0.016-0.303,0.023c-0.444,0.035-0.891,0.066-1.337,0.096
				c-0.127,0.008-0.253,0.018-0.38,0.025c-0.439,0.027-0.88,0.053-1.319,0.076c-0.119,0.006-0.237,0.012-0.356,0.016
				c-0.417,0.021-0.834,0.039-1.251,0.055c-0.052,0.002-0.104,0.006-0.155,0.008l-0.074,0.002c-0.624,0.023-1.281,0.043-1.955,0.057
				h-0.037h-0.018h-0.069c-0.199-0.002-0.396-0.006-0.594-0.012c-0.059-0.002-0.116-0.004-0.174-0.006
				c-0.147-0.006-0.295-0.012-0.442-0.02c-0.057-0.002-0.113-0.006-0.169-0.008c-0.397-0.023-0.793-0.053-1.187-0.092
				c-0.05-0.004-0.1-0.01-0.149-0.016c-0.155-0.016-0.31-0.033-0.465-0.051c-0.048-0.006-0.096-0.012-0.144-0.018
				c-0.399-0.049-0.797-0.107-1.192-0.172c-0.036-0.008-0.072-0.014-0.108-0.02c-0.169-0.029-0.338-0.059-0.506-0.09
				c-0.033-0.008-0.068-0.014-0.103-0.02c-0.402-0.078-0.804-0.164-1.202-0.258c-0.02-0.004-0.04-0.01-0.061-0.014
				c-0.184-0.045-0.367-0.09-0.55-0.137c-0.02-0.006-0.04-0.012-0.06-0.016c-0.406-0.107-0.808-0.221-1.208-0.344
				c-0.006-0.002-0.012-0.004-0.019-0.006c-0.194-0.061-0.388-0.123-0.582-0.186c-0.01-0.004-0.02-0.008-0.029-0.01
				c-0.402-0.135-0.801-0.277-1.195-0.428l0,0c7.591,6.514,17.377,11.621,28.526,14.711
				C404.88,462.513,400.788,457.321,400.788,451.171z"/>
			<path fill="#F68B1F" d="M413.88,372.892c1.106,0.461,2.188,0.992,3.223,1.582c0.002,0.002,0.004,0.004,0.006,0.004
				c0.018,0.01,0.036,0.016,0.054,0.025c0.1,0.047,0.2,0.092,0.301,0.139c0.68,0.318,1.361,0.629,2.046,0.932
				c0.077,0.035,0.154,0.07,0.231,0.104c0.104,0.047,0.209,0.092,0.313,0.137c0.34,0.148,0.681,0.297,1.022,0.441
				c0.135,0.059,0.271,0.113,0.406,0.172c0.312,0.131,0.624,0.262,0.937,0.389c0.162,0.066,0.323,0.131,0.484,0.197
				c0.289,0.115,0.578,0.232,0.867,0.348c0.182,0.072,0.364,0.143,0.547,0.213c0.271,0.105,0.541,0.211,0.812,0.314
				c0.198,0.074,0.396,0.148,0.595,0.223c0.257,0.096,0.515,0.191,0.772,0.287c0.21,0.076,0.42,0.15,0.631,0.227
				c0.248,0.088,0.496,0.178,0.743,0.264c0.218,0.076,0.436,0.15,0.653,0.227c0.243,0.084,0.486,0.168,0.73,0.248
				c0.221,0.074,0.441,0.148,0.662,0.221c0.243,0.08,0.486,0.16,0.729,0.238c0.221,0.07,0.442,0.139,0.663,0.209
				c0.244,0.076,0.49,0.154,0.736,0.229c0.217,0.068,0.436,0.133,0.653,0.199c0.25,0.074,0.501,0.148,0.751,0.223
				c0.212,0.062,0.426,0.123,0.639,0.184c0.258,0.074,0.515,0.146,0.774,0.219c0.204,0.057,0.41,0.113,0.614,0.168
				c0.269,0.074,0.537,0.146,0.806,0.217c0.193,0.051,0.388,0.102,0.582,0.152c0.282,0.072,0.562,0.145,0.844,0.215
				c0.183,0.045,0.365,0.088,0.548,0.133c0.295,0.072,0.59,0.145,0.885,0.215c0.169,0.039,0.338,0.078,0.507,0.117
				c0.311,0.07,0.621,0.143,0.933,0.211c0.154,0.033,0.308,0.066,0.462,0.102c0.327,0.07,0.654,0.141,0.983,0.209
				c0.138,0.029,0.275,0.057,0.413,0.084c0.346,0.07,0.691,0.141,1.038,0.207c0.121,0.023,0.241,0.047,0.362,0.068
				c0.364,0.07,0.729,0.139,1.094,0.203c0.104,0.02,0.207,0.037,0.312,0.055c0.383,0.068,0.766,0.135,1.15,0.199
				c0.085,0.014,0.171,0.027,0.257,0.041c0.403,0.066,0.806,0.131,1.209,0.193c0.068,0.01,0.136,0.02,0.204,0.029
				c0.423,0.064,0.845,0.125,1.268,0.184c0.05,0.008,0.1,0.014,0.149,0.021c0.441,0.061,0.883,0.119,1.325,0.176
				c0.033,0.004,0.066,0.008,0.1,0.012c0.46,0.057,0.919,0.111,1.38,0.164c0.017,0,0.033,0.002,0.05,0.004
				c0.477,0.055,0.954,0.104,1.433,0.152c0.001,0,0.003,0,0.005,0c2.937,0.289,5.896,0.467,8.879,0.529
				c-6.027-3.234-10.621-8.791-12.583-15.475c-4.81-0.576-9.707-0.873-14.673-0.873c-8.762,0-17.306,0.926-25.543,2.682
				c-0.049,0.012-0.098,0.021-0.146,0.031c1.362,0.34,2.701,0.777,4.012,1.314C413.773,372.845,413.826,372.868,413.88,372.892z"/>
			<path fill="#F68B1F" d="M509.825,379.786c-0.857-1.154-1.642-2.367-2.348-3.629c-2.695-4.83-4.234-10.398-4.234-16.324
				c0-1.375,0.084-2.732,0.245-4.066c-1.068,5.055-2.466,9.99-4.168,14.779c0,0.002,0,0.004-0.002,0.006
				c-0.136,0.412-0.283,0.82-0.441,1.223c-0.01,0.025-0.021,0.051-0.03,0.076c-1.619,4.109-4.263,7.701-7.615,10.463
				c-0.212,0.174-0.428,0.346-0.646,0.514h0.001c0.058,0.014,0.116,0.029,0.174,0.045c0.033,0.01,0.066,0.02,0.099,0.029
				c0.057,0.016,0.112,0.033,0.168,0.053c0.033,0.01,0.065,0.021,0.099,0.033c0.182,0.064,0.359,0.139,0.533,0.223
				c0.038,0.018,0.076,0.037,0.112,0.055c0.046,0.023,0.092,0.049,0.137,0.074c0.041,0.021,0.081,0.045,0.121,0.068
				c0.041,0.023,0.082,0.047,0.123,0.072c0.073,0.045,0.146,0.092,0.218,0.141c0.031,0.021,0.061,0.045,0.092,0.066
				c0.048,0.035,0.096,0.07,0.144,0.107c0.032,0.025,0.063,0.051,0.096,0.076c0.047,0.037,0.094,0.076,0.14,0.117
				c0.026,0.023,0.055,0.047,0.081,0.07c0.069,0.062,0.139,0.127,0.205,0.193c0.013,0.014,0.024,0.027,0.036,0.039
				c0.058,0.059,0.112,0.117,0.167,0.178c0.021,0.025,0.042,0.049,0.063,0.072c0.046,0.055,0.091,0.109,0.136,0.166
				c0.018,0.023,0.037,0.047,0.055,0.07c0.061,0.08,0.12,0.158,0.176,0.242c0.379,0.555,0.646,1.17,0.795,1.816
				c0.088,0.389,0.134,0.789,0.134,1.195c0,0.07-0.002,0.141-0.005,0.209c-0.003,0.061-0.007,0.123-0.011,0.182
				c-0.001,0.01-0.001,0.018-0.002,0.025c-0.011,0.137-0.026,0.273-0.048,0.41l-0.001,0.002c1.449-0.82,2.984-1.508,4.59-2.037
				c2.552-0.848,5.281-1.305,8.118-1.305c4.326,0,8.403,1.064,11.986,2.947C515.619,386.206,512.395,383.253,509.825,379.786z"/>
			<path fill="#F68B1F" d="M376.524,446.716c-0.002-0.002-0.004-0.004-0.006-0.004c-0.267-0.172-0.531-0.35-0.793-0.531
				c-0.001,0-0.003-0.002-0.005-0.004c-0.262-0.18-0.521-0.367-0.777-0.557c-0.001,0-0.002,0-0.002-0.002
				c-0.257-0.189-0.51-0.385-0.761-0.584h-0.001c-0.252-0.201-0.499-0.404-0.743-0.611h-0.001c-0.244-0.209-0.485-0.42-0.724-0.637
				h-0.001c-0.237-0.215-0.472-0.436-0.703-0.66l0,0c-0.23-0.225-0.458-0.451-0.683-0.684l0,0c-0.224-0.232-0.444-0.469-0.661-0.709
				l0,0c-0.217-0.24-0.429-0.482-0.639-0.73l0,0c-0.208-0.248-0.414-0.5-0.615-0.754l0,0c-0.604-0.766-1.172-1.564-1.701-2.395l0,0
				c-0.177-0.277-0.349-0.557-0.516-0.84c-0.001-0.002-0.001-0.002-0.001-0.002c-0.168-0.283-0.331-0.57-0.489-0.861l-0.018-0.033
				l-0.017-0.029l-0.001-0.004c-0.46-0.885-0.892-1.787-1.283-2.678c-0.123-0.283-0.243-0.564-0.36-0.848
				c-0.038-0.092-0.074-0.184-0.112-0.273c-0.079-0.195-0.156-0.391-0.233-0.586c-0.041-0.105-0.082-0.209-0.122-0.316
				c-0.071-0.188-0.142-0.375-0.211-0.562c-0.038-0.104-0.076-0.207-0.112-0.309c-0.081-0.225-0.158-0.451-0.235-0.676
				c-0.021-0.062-0.045-0.127-0.065-0.189c-0.093-0.277-0.182-0.555-0.269-0.834c-0.036-0.113-0.069-0.229-0.104-0.344
				c-0.053-0.172-0.104-0.344-0.153-0.516c-0.038-0.131-0.075-0.264-0.111-0.395c-0.045-0.158-0.087-0.316-0.13-0.475
				c-0.035-0.135-0.072-0.271-0.106-0.406c-0.041-0.162-0.081-0.322-0.12-0.484c-0.043-0.178-0.087-0.357-0.128-0.535
				c-0.049-0.217-0.099-0.434-0.145-0.648c-0.032-0.152-0.062-0.305-0.093-0.457c-0.027-0.137-0.055-0.273-0.081-0.41
				c-0.03-0.158-0.06-0.318-0.089-0.479c-0.022-0.129-0.045-0.258-0.066-0.385c-0.027-0.164-0.056-0.328-0.081-0.492
				c-0.019-0.123-0.037-0.246-0.055-0.369c-0.063-0.426-0.122-0.855-0.172-1.283l0,0c-1.649,0.01-3.299,0.006-4.948-0.012
				c-0.092,0-0.183-0.002-0.273-0.002c-0.525-0.008-1.05-0.014-1.576-0.023l0,0c0.592-0.961,0.961-2.074,1.032-3.273
				c0.013-0.176,0.015-0.326,0.015-0.426c0-1.094-0.251-2.131-0.696-3.057c0.47,0.031,0.939,0.061,1.409,0.09
				c0.106,0.006,0.214,0.012,0.322,0.018c1.488,0.088,2.979,0.166,4.471,0.23h0.002c0.001-0.025,0.003-0.051,0.004-0.078
				c0.008-0.199,0.018-0.4,0.028-0.6c0.003-0.043,0.006-0.088,0.008-0.131c0.012-0.191,0.024-0.383,0.038-0.574
				c0.004-0.057,0.009-0.111,0.013-0.166c0.014-0.18,0.028-0.359,0.044-0.537c0.007-0.072,0.014-0.145,0.021-0.217
				c0.015-0.162,0.03-0.322,0.048-0.484c0.01-0.094,0.021-0.188,0.032-0.283c0.016-0.137,0.031-0.275,0.048-0.414
				c0.016-0.125,0.033-0.25,0.05-0.375c0.015-0.107,0.028-0.215,0.043-0.32c0.023-0.17,0.05-0.338,0.076-0.508
				c0.01-0.062,0.019-0.125,0.028-0.188c0.757-4.771,2.348-9.406,4.759-13.861c0.008-0.014,0.016-0.029,0.023-0.045
				c0.108-0.199,0.218-0.396,0.329-0.596c0.021-0.039,0.044-0.078,0.065-0.115c0.097-0.174,0.195-0.346,0.295-0.518
				c0.038-0.064,0.076-0.129,0.113-0.191c0.085-0.145,0.17-0.289,0.256-0.432c0.057-0.096,0.114-0.189,0.172-0.283
				c0.063-0.105,0.126-0.209,0.191-0.312c0.077-0.125,0.156-0.25,0.235-0.377c0.029-0.045,0.058-0.092,0.087-0.137
				c0.021-0.033,0.042-0.064,0.062-0.098c0.077-0.121,0.155-0.242,0.233-0.363c0.04-0.061,0.081-0.123,0.121-0.184
				c0.092-0.139,0.184-0.277,0.276-0.416c0.024-0.037,0.05-0.074,0.074-0.109c0.841-1.246,1.742-2.461,2.702-3.646
				c0.007-0.01,0.017-0.021,0.024-0.031c0.129-0.158,0.259-0.316,0.39-0.475c0.019-0.021,0.036-0.045,0.055-0.066
				c0.125-0.15,0.252-0.301,0.379-0.451c0.023-0.027,0.048-0.055,0.071-0.084c0.125-0.145,0.25-0.291,0.377-0.436
				c0.025-0.029,0.052-0.059,0.078-0.09c0.126-0.143,0.252-0.287,0.38-0.43c0.021-0.021,0.04-0.043,0.06-0.066
				c0.193-0.215,0.39-0.43,0.588-0.645c0.097-0.104,0.193-0.209,0.29-0.312c0.053-0.055,0.105-0.109,0.158-0.166
				c0.098-0.104,0.195-0.207,0.295-0.311c-14.296,8.102-26.792,19.006-36.74,31.969c-2.678,3.49-5.17,7.127-7.463,10.898
				c-0.091,0.148-0.181,0.295-0.269,0.443c-0.262,0.508-0.408,1.082-0.408,1.693c0,1.283,0.649,2.412,1.637,3.08
				c0,0,0.003,0.002,0.005,0.002c0.164,0.096,0.329,0.189,0.495,0.281c13.454,7.596,28.572,12.588,44.671,14.293
				c0,0-0.002-0.002-0.004-0.002C377.061,447.054,376.791,446.888,376.524,446.716z M352.738,417.599
				c-0.103,1.855-1.64,3.33-3.521,3.334l0,0c0,0-0.004,0-0.006,0c-0.021,0-0.041-0.002-0.062-0.002h-0.003
				c-0.063-0.002-0.127-0.004-0.19-0.008l0,0l0,0c-1.832-0.133-3.277-1.66-3.277-3.523c0-0.084,0.002-0.166,0.01-0.248
				c0.126-1.836,1.657-3.287,3.523-3.287c0.059,0,0.116,0.002,0.174,0.004l0,0h0.002c0.057,0.004,0.112,0.008,0.169,0.014
				c0.018,0.002,0.035,0.004,0.052,0.004c1.765,0.197,3.137,1.695,3.137,3.514C352.744,417.466,352.743,417.532,352.738,417.599z"/>
		</g>
	</g>
</g>
</svg>
