<?xml version="1.0" encoding="UTF-8" standalone="no"?>
<!-- Generator: Adobe Illustrator 16.0.0, SVG Export Plug-In . SVG Version: 6.00 Build 0)  -->

<svg
   xmlns:dc="http://purl.org/dc/elements/1.1/"
   xmlns:cc="http://creativecommons.org/ns#"
   xmlns:rdf="http://www.w3.org/1999/02/22-rdf-syntax-ns#"
   xmlns:svg="http://www.w3.org/2000/svg"
   xmlns="http://www.w3.org/2000/svg"
   xmlns:sodipodi="http://sodipodi.sourceforge.net/DTD/sodipodi-0.dtd"
   xmlns:inkscape="http://www.inkscape.org/namespaces/inkscape"
   version="1.1"
   id="Layer_1"
   x="0px"
   y="0px"
   width="850.39px"
   height="850.39px"
   viewBox="0 0 850.39 850.39"
   enable-background="new 0 0 850.39 850.39"
   xml:space="preserve"
   inkscape:version="0.48.4 r9939"
   sodipodi:docname="wegrow-logo-rect.svg"
   inkscape:export-filename="/home/hamish/fishy-wifi/wegrow-web/content/images/wegrow-logo-rect.png"
   inkscape:export-xdpi="73.220001"
   inkscape:export-ydpi="73.220001"><metadata
     id="metadata51"><rdf:RDF><cc:Work
         rdf:about=""><dc:format>image/svg+xml</dc:format><dc:type
           rdf:resource="http://purl.org/dc/dcmitype/StillImage" /><dc:title></dc:title></cc:Work></rdf:RDF></metadata><defs
     id="defs49" /><sodipodi:namedview
     pagecolor="#ffffff"
     bordercolor="#666666"
     borderopacity="1"
     objecttolerance="10"
     gridtolerance="10"
     guidetolerance="10"
     inkscape:pageopacity="0"
     inkscape:pageshadow="2"
     inkscape:window-width="1600"
     inkscape:window-height="876"
     id="namedview47"
     showgrid="false"
     inkscape:zoom="2.2201578"
     inkscape:cx="425.19501"
     inkscape:cy="425.19501"
     inkscape:window-x="0"
     inkscape:window-y="24"
     inkscape:window-maximized="1"
     inkscape:current-layer="Layer_1" /><g
     id="g33"><g
       id="g35"><path
         style="fill:#50b848"
         inkscape:connector-curvature="0"
         id="path37"
         d="m 489.334,386.21 c -0.112,0 -0.224,0.012 -0.331,0.031 -0.029,0.008 -0.059,0.014 -0.087,0.02 -0.013,0.002 -0.024,0.004 -0.036,0.008 -3.473,0.723 -7.002,1.289 -10.58,1.693 h -0.006 c -0.458,0.062 -0.923,0.113 -1.388,0.148 -0.012,0.002 -0.023,0.004 -0.034,0.004 -3.874,0.391 -7.803,0.59 -11.78,0.59 -17.551,0 -34.193,-3.889 -49.114,-10.852 0,-0.002 -0.002,-0.002 -0.004,-0.004 -1.399,-0.654 -2.785,-1.334 -4.154,-2.043 -0.003,0 -0.006,0 -0.01,-0.004 -2.86,-1.098 -5.965,-1.699 -9.213,-1.699 -1.279,0 -2.536,0.094 -3.764,0.273 -3.274,0.48 -6.349,1.576 -9.1,3.166 -0.145,0.09 -0.289,0.182 -0.433,0.273 -0.688,0.438 -1.362,0.885 -2.024,1.342 -13.064,8.996 -21.39,21.617 -21.959,35.658 6.648,0.205 13.311,0.176 19.967,-0.09 11.969,-0.482 23.926,-1.74 35.755,-3.824 11.829,-2.084 23.533,-4.992 34.966,-8.795 11.431,-3.805 22.592,-8.502 33.261,-14.199 -10.379,6.211 -21.346,11.473 -32.661,15.861 -11.32,4.389 -22.994,7.904 -34.867,10.598 -11.874,2.693 -23.949,4.562 -36.109,5.648 -6.661,0.592 -13.348,0.951 -20.043,1.076 0.474,3.766 1.505,7.412 3.036,10.896 0.365,0.832 0.761,1.656 1.183,2.471 4.323,7.916 12.691,13.307 22.327,13.395 0.662,-0.014 1.321,-0.031 1.979,-0.057 2.433,-0.09 4.847,-0.254 7.238,-0.492 8.088,-0.803 15.931,-2.432 23.444,-4.807 24.878,-7.855 46.142,-23.855 60.661,-44.871 0,-0.002 0.002,-0.004 0.004,-0.006 0.334,-0.531 0.688,-1.053 1.061,-1.561 0.003,-0.004 0.007,-0.008 0.01,-0.012 1.528,-2.293 2.979,-4.643 4.345,-7.047 0,-0.002 10e-4,-0.002 10e-4,-0.002 0.023,-0.041 0.048,-0.082 0.069,-0.123 0.006,-0.008 0.011,-0.018 0.015,-0.025 0.126,-0.246 0.195,-0.525 0.195,-0.82 0,-0.379 -0.116,-0.732 -0.315,-1.023 -0.327,-0.479 -0.878,-0.795 -1.505,-0.795 z" /><path
         style="fill:#f68b1f"
         inkscape:connector-curvature="0"
         id="path39"
         d="m 400.788,451.171 c 0,-0.088 0.003,-0.176 0.005,-0.266 -0.005,0.002 -0.01,0.002 -0.014,0.002 -0.475,0.043 -0.949,0.084 -1.426,0.121 -0.102,0.008 -0.202,0.016 -0.303,0.023 -0.444,0.035 -0.891,0.066 -1.337,0.096 -0.127,0.008 -0.253,0.018 -0.38,0.025 -0.439,0.027 -0.88,0.053 -1.319,0.076 -0.119,0.006 -0.237,0.012 -0.356,0.016 -0.417,0.021 -0.834,0.039 -1.251,0.055 -0.052,0.002 -0.104,0.006 -0.155,0.008 l -0.074,0.002 c -0.624,0.023 -1.281,0.043 -1.955,0.057 h -0.037 -0.018 -0.069 c -0.199,-0.002 -0.396,-0.006 -0.594,-0.012 -0.059,-0.002 -0.116,-0.004 -0.174,-0.006 -0.147,-0.006 -0.295,-0.012 -0.442,-0.02 -0.057,-0.002 -0.113,-0.006 -0.169,-0.008 -0.397,-0.023 -0.793,-0.053 -1.187,-0.092 -0.05,-0.004 -0.1,-0.01 -0.149,-0.016 -0.155,-0.016 -0.31,-0.033 -0.465,-0.051 -0.048,-0.006 -0.096,-0.012 -0.144,-0.018 -0.399,-0.049 -0.797,-0.107 -1.192,-0.172 -0.036,-0.008 -0.072,-0.014 -0.108,-0.02 -0.169,-0.029 -0.338,-0.059 -0.506,-0.09 -0.033,-0.008 -0.068,-0.014 -0.103,-0.02 -0.402,-0.078 -0.804,-0.164 -1.202,-0.258 -0.02,-0.004 -0.04,-0.01 -0.061,-0.014 -0.184,-0.045 -0.367,-0.09 -0.55,-0.137 -0.02,-0.006 -0.04,-0.012 -0.06,-0.016 -0.406,-0.107 -0.808,-0.221 -1.208,-0.344 -0.006,-0.002 -0.012,-0.004 -0.019,-0.006 -0.194,-0.061 -0.388,-0.123 -0.582,-0.186 -0.01,-0.004 -0.02,-0.008 -0.029,-0.01 -0.402,-0.135 -0.801,-0.277 -1.195,-0.428 l 0,0 c 7.591,6.514 17.377,11.621 28.526,14.711 -5.606,-1.66 -9.698,-6.852 -9.698,-13.002 z" /><path
         style="fill:#f68b1f"
         inkscape:connector-curvature="0"
         id="path41"
         d="m 413.88,372.892 c 1.106,0.461 2.188,0.992 3.223,1.582 0.002,0.002 0.004,0.004 0.006,0.004 0.018,0.01 0.036,0.016 0.054,0.025 0.1,0.047 0.2,0.092 0.301,0.139 0.68,0.318 1.361,0.629 2.046,0.932 0.077,0.035 0.154,0.07 0.231,0.104 0.104,0.047 0.209,0.092 0.313,0.137 0.34,0.148 0.681,0.297 1.022,0.441 0.135,0.059 0.271,0.113 0.406,0.172 0.312,0.131 0.624,0.262 0.937,0.389 0.162,0.066 0.323,0.131 0.484,0.197 0.289,0.115 0.578,0.232 0.867,0.348 0.182,0.072 0.364,0.143 0.547,0.213 0.271,0.105 0.541,0.211 0.812,0.314 0.198,0.074 0.396,0.148 0.595,0.223 0.257,0.096 0.515,0.191 0.772,0.287 0.21,0.076 0.42,0.15 0.631,0.227 0.248,0.088 0.496,0.178 0.743,0.264 0.218,0.076 0.436,0.15 0.653,0.227 0.243,0.084 0.486,0.168 0.73,0.248 0.221,0.074 0.441,0.148 0.662,0.221 0.243,0.08 0.486,0.16 0.729,0.238 0.221,0.07 0.442,0.139 0.663,0.209 0.244,0.076 0.49,0.154 0.736,0.229 0.217,0.068 0.436,0.133 0.653,0.199 0.25,0.074 0.501,0.148 0.751,0.223 0.212,0.062 0.426,0.123 0.639,0.184 0.258,0.074 0.515,0.146 0.774,0.219 0.204,0.057 0.41,0.113 0.614,0.168 0.269,0.074 0.537,0.146 0.806,0.217 0.193,0.051 0.388,0.102 0.582,0.152 0.282,0.072 0.562,0.145 0.844,0.215 0.183,0.045 0.365,0.088 0.548,0.133 0.295,0.072 0.59,0.145 0.885,0.215 0.169,0.039 0.338,0.078 0.507,0.117 0.311,0.07 0.621,0.143 0.933,0.211 0.154,0.033 0.308,0.066 0.462,0.102 0.327,0.07 0.654,0.141 0.983,0.209 0.138,0.029 0.275,0.057 0.413,0.084 0.346,0.07 0.691,0.141 1.038,0.207 0.121,0.023 0.241,0.047 0.362,0.068 0.364,0.07 0.729,0.139 1.094,0.203 0.104,0.02 0.207,0.037 0.312,0.055 0.383,0.068 0.766,0.135 1.15,0.199 0.085,0.014 0.171,0.027 0.257,0.041 0.403,0.066 0.806,0.131 1.209,0.193 0.068,0.01 0.136,0.02 0.204,0.029 0.423,0.064 0.845,0.125 1.268,0.184 0.05,0.008 0.1,0.014 0.149,0.021 0.441,0.061 0.883,0.119 1.325,0.176 0.033,0.004 0.066,0.008 0.1,0.012 0.46,0.057 0.919,0.111 1.38,0.164 0.017,0 0.033,0.002 0.05,0.004 0.477,0.055 0.954,0.104 1.433,0.152 0.001,0 0.003,0 0.005,0 2.937,0.289 5.896,0.467 8.879,0.529 -6.027,-3.234 -10.621,-8.791 -12.583,-15.475 -4.81,-0.576 -9.707,-0.873 -14.673,-0.873 -8.762,0 -17.306,0.926 -25.543,2.682 -0.049,0.012 -0.098,0.021 -0.146,0.031 1.362,0.34 2.701,0.777 4.012,1.314 0.054,0.019 0.107,0.042 0.161,0.066 z" /><path
         style="fill:#f68b1f"
         inkscape:connector-curvature="0"
         id="path43"
         d="m 509.825,379.786 c -0.857,-1.154 -1.642,-2.367 -2.348,-3.629 -2.695,-4.83 -4.234,-10.398 -4.234,-16.324 0,-1.375 0.084,-2.732 0.245,-4.066 -1.068,5.055 -2.466,9.99 -4.168,14.779 0,0.002 0,0.004 -0.002,0.006 -0.136,0.412 -0.283,0.82 -0.441,1.223 -0.01,0.025 -0.021,0.051 -0.03,0.076 -1.619,4.109 -4.263,7.701 -7.615,10.463 -0.212,0.174 -0.428,0.346 -0.646,0.514 h 10e-4 c 0.058,0.014 0.116,0.029 0.174,0.045 0.033,0.01 0.066,0.02 0.099,0.029 0.057,0.016 0.112,0.033 0.168,0.053 0.033,0.01 0.065,0.021 0.099,0.033 0.182,0.064 0.359,0.139 0.533,0.223 0.038,0.018 0.076,0.037 0.112,0.055 0.046,0.023 0.092,0.049 0.137,0.074 0.041,0.021 0.081,0.045 0.121,0.068 0.041,0.023 0.082,0.047 0.123,0.072 0.073,0.045 0.146,0.092 0.218,0.141 0.031,0.021 0.061,0.045 0.092,0.066 0.048,0.035 0.096,0.07 0.144,0.107 0.032,0.025 0.063,0.051 0.096,0.076 0.047,0.037 0.094,0.076 0.14,0.117 0.026,0.023 0.055,0.047 0.081,0.07 0.069,0.062 0.139,0.127 0.205,0.193 0.013,0.014 0.024,0.027 0.036,0.039 0.058,0.059 0.112,0.117 0.167,0.178 0.021,0.025 0.042,0.049 0.063,0.072 0.046,0.055 0.091,0.109 0.136,0.166 0.018,0.023 0.037,0.047 0.055,0.07 0.061,0.08 0.12,0.158 0.176,0.242 0.379,0.555 0.646,1.17 0.795,1.816 0.088,0.389 0.134,0.789 0.134,1.195 0,0.07 -0.002,0.141 -0.005,0.209 -0.003,0.061 -0.007,0.123 -0.011,0.182 -0.001,0.01 -0.001,0.018 -0.002,0.025 -0.011,0.137 -0.026,0.273 -0.048,0.41 l -10e-4,0.002 c 1.449,-0.82 2.984,-1.508 4.59,-2.037 2.552,-0.848 5.281,-1.305 8.118,-1.305 4.326,0 8.403,1.064 11.986,2.947 -3.699,-2.255 -6.923,-5.208 -9.493,-8.675 z" /><path
         style="fill:#f68b1f"
         inkscape:connector-curvature="0"
         id="path45"
         d="m 376.524,446.716 c -0.002,-0.002 -0.004,-0.004 -0.006,-0.004 -0.267,-0.172 -0.531,-0.35 -0.793,-0.531 -0.001,0 -0.003,-0.002 -0.005,-0.004 -0.262,-0.18 -0.521,-0.367 -0.777,-0.557 -10e-4,0 -0.002,0 -0.002,-0.002 -0.257,-0.189 -0.51,-0.385 -0.761,-0.584 h -0.001 c -0.252,-0.201 -0.499,-0.404 -0.743,-0.611 h -10e-4 c -0.244,-0.209 -0.485,-0.42 -0.724,-0.637 h -0.001 c -0.237,-0.215 -0.472,-0.436 -0.703,-0.66 l 0,0 c -0.23,-0.225 -0.458,-0.451 -0.683,-0.684 l 0,0 c -0.224,-0.232 -0.444,-0.469 -0.661,-0.709 l 0,0 c -0.217,-0.24 -0.429,-0.482 -0.639,-0.73 l 0,0 c -0.208,-0.248 -0.414,-0.5 -0.615,-0.754 l 0,0 c -0.604,-0.766 -1.172,-1.564 -1.701,-2.395 l 0,0 c -0.177,-0.277 -0.349,-0.557 -0.516,-0.84 -0.001,-0.002 -0.001,-0.002 -0.001,-0.002 -0.168,-0.283 -0.331,-0.57 -0.489,-0.861 l -0.018,-0.033 -0.017,-0.029 -10e-4,-0.004 c -0.46,-0.885 -0.892,-1.787 -1.283,-2.678 -0.123,-0.283 -0.243,-0.564 -0.36,-0.848 -0.038,-0.092 -0.074,-0.184 -0.112,-0.273 -0.079,-0.195 -0.156,-0.391 -0.233,-0.586 -0.041,-0.105 -0.082,-0.209 -0.122,-0.316 -0.071,-0.188 -0.142,-0.375 -0.211,-0.562 -0.038,-0.104 -0.076,-0.207 -0.112,-0.309 -0.081,-0.225 -0.158,-0.451 -0.235,-0.676 -0.021,-0.062 -0.045,-0.127 -0.065,-0.189 -0.093,-0.277 -0.182,-0.555 -0.269,-0.834 -0.036,-0.113 -0.069,-0.229 -0.104,-0.344 -0.053,-0.172 -0.104,-0.344 -0.153,-0.516 -0.038,-0.131 -0.075,-0.264 -0.111,-0.395 -0.045,-0.158 -0.087,-0.316 -0.13,-0.475 -0.035,-0.135 -0.072,-0.271 -0.106,-0.406 -0.041,-0.162 -0.081,-0.322 -0.12,-0.484 -0.043,-0.178 -0.087,-0.357 -0.128,-0.535 -0.049,-0.217 -0.099,-0.434 -0.145,-0.648 -0.032,-0.152 -0.062,-0.305 -0.093,-0.457 -0.027,-0.137 -0.055,-0.273 -0.081,-0.41 -0.03,-0.158 -0.06,-0.318 -0.089,-0.479 -0.022,-0.129 -0.045,-0.258 -0.066,-0.385 -0.027,-0.164 -0.056,-0.328 -0.081,-0.492 -0.019,-0.123 -0.037,-0.246 -0.055,-0.369 -0.063,-0.426 -0.122,-0.855 -0.172,-1.283 l 0,0 c -1.649,0.01 -3.299,0.006 -4.948,-0.012 -0.092,0 -0.183,-0.002 -0.273,-0.002 -0.525,-0.008 -1.05,-0.014 -1.576,-0.023 l 0,0 c 0.592,-0.961 0.961,-2.074 1.032,-3.273 0.013,-0.176 0.015,-0.326 0.015,-0.426 0,-1.094 -0.251,-2.131 -0.696,-3.057 0.47,0.031 0.939,0.061 1.409,0.09 0.106,0.006 0.214,0.012 0.322,0.018 1.488,0.088 2.979,0.166 4.471,0.23 h 0.002 c 10e-4,-0.025 0.003,-0.051 0.004,-0.078 0.008,-0.199 0.018,-0.4 0.028,-0.6 0.003,-0.043 0.006,-0.088 0.008,-0.131 0.012,-0.191 0.024,-0.383 0.038,-0.574 0.004,-0.057 0.009,-0.111 0.013,-0.166 0.014,-0.18 0.028,-0.359 0.044,-0.537 0.007,-0.072 0.014,-0.145 0.021,-0.217 0.015,-0.162 0.03,-0.322 0.048,-0.484 0.01,-0.094 0.021,-0.188 0.032,-0.283 0.016,-0.137 0.031,-0.275 0.048,-0.414 0.016,-0.125 0.033,-0.25 0.05,-0.375 0.015,-0.107 0.028,-0.215 0.043,-0.32 0.023,-0.17 0.05,-0.338 0.076,-0.508 0.01,-0.062 0.019,-0.125 0.028,-0.188 0.757,-4.771 2.348,-9.406 4.759,-13.861 0.008,-0.014 0.016,-0.029 0.023,-0.045 0.108,-0.199 0.218,-0.396 0.329,-0.596 0.021,-0.039 0.044,-0.078 0.065,-0.115 0.097,-0.174 0.195,-0.346 0.295,-0.518 0.038,-0.064 0.076,-0.129 0.113,-0.191 0.085,-0.145 0.17,-0.289 0.256,-0.432 0.057,-0.096 0.114,-0.189 0.172,-0.283 0.063,-0.105 0.126,-0.209 0.191,-0.312 0.077,-0.125 0.156,-0.25 0.235,-0.377 0.029,-0.045 0.058,-0.092 0.087,-0.137 0.021,-0.033 0.042,-0.064 0.062,-0.098 0.077,-0.121 0.155,-0.242 0.233,-0.363 0.04,-0.061 0.081,-0.123 0.121,-0.184 0.092,-0.139 0.184,-0.277 0.276,-0.416 0.024,-0.037 0.05,-0.074 0.074,-0.109 0.841,-1.246 1.742,-2.461 2.702,-3.646 0.007,-0.01 0.017,-0.021 0.024,-0.031 0.129,-0.158 0.259,-0.316 0.39,-0.475 0.019,-0.021 0.036,-0.045 0.055,-0.066 0.125,-0.15 0.252,-0.301 0.379,-0.451 0.023,-0.027 0.048,-0.055 0.071,-0.084 0.125,-0.145 0.25,-0.291 0.377,-0.436 0.025,-0.029 0.052,-0.059 0.078,-0.09 0.126,-0.143 0.252,-0.287 0.38,-0.43 0.021,-0.021 0.04,-0.043 0.06,-0.066 0.193,-0.215 0.39,-0.43 0.588,-0.645 0.097,-0.104 0.193,-0.209 0.29,-0.312 0.053,-0.055 0.105,-0.109 0.158,-0.166 0.098,-0.104 0.195,-0.207 0.295,-0.311 -14.296,8.102 -26.792,19.006 -36.74,31.969 -2.678,3.49 -5.17,7.127 -7.463,10.898 -0.091,0.148 -0.181,0.295 -0.269,0.443 -0.262,0.508 -0.408,1.082 -0.408,1.693 0,1.283 0.649,2.412 1.637,3.08 0,0 0.003,0.002 0.005,0.002 0.164,0.096 0.329,0.189 0.495,0.281 13.454,7.596 28.572,12.588 44.671,14.293 0,0 -0.002,-0.002 -0.004,-0.002 -0.27,-0.163 -0.54,-0.329 -0.807,-0.501 z m -23.786,-29.117 c -0.103,1.855 -1.64,3.33 -3.521,3.334 l 0,0 c 0,0 -0.004,0 -0.006,0 -0.021,0 -0.041,-0.002 -0.062,-0.002 h -0.003 c -0.063,-0.002 -0.127,-0.004 -0.19,-0.008 l 0,0 0,0 c -1.832,-0.133 -3.277,-1.66 -3.277,-3.523 0,-0.084 0.002,-0.166 0.01,-0.248 0.126,-1.836 1.657,-3.287 3.523,-3.287 0.059,0 0.116,0.002 0.174,0.004 l 0,0 h 0.002 c 0.057,0.004 0.112,0.008 0.169,0.014 0.018,0.002 0.035,0.004 0.052,0.004 1.765,0.197 3.137,1.695 3.137,3.514 -0.002,0.065 -0.003,0.131 -0.008,0.198 z" /></g></g><text
     xml:space="preserve"
     style="font-size:12px;font-style:normal;font-variant:normal;font-weight:normal;font-stretch:normal;line-height:125%;letter-spacing:0px;word-spacing:0px;fill:#f68b1f;fill-opacity:1;stroke:none;font-family:Purisa;-inkscape-font-specification:Purisa"
     x="410.79227"
     y="461.59875"
     id="text3062"
     sodipodi:linespacing="125%"><tspan
       sodipodi:role="line"
       id="tspan3064"
       x="410.79227"
       y="461.59875"
       style="font-size:22px;font-weight:bold;-inkscape-font-specification:Purisa Bold">.Social</tspan></text>
<text
     sodipodi:linespacing="125%"
     id="text2990"
     y="367.59875"
     x="326.79227"
     style="font-size:12px;font-style:normal;font-variant:normal;font-weight:normal;font-stretch:normal;line-height:125%;letter-spacing:0px;word-spacing:0px;fill:#f68b1f;fill-opacity:1;stroke:none;font-family:Purisa;-inkscape-font-specification:Purisa"
     xml:space="preserve"><tspan
       style="font-size:22px;font-weight:bold;-inkscape-font-specification:Purisa Bold"
       y="367.59875"
       x="326.79227"
       id="tspan2992"
       sodipodi:role="line">WeGrow</tspan></text>
</svg>