<?xml version="1.0" encoding="UTF-8" standalone="no"?>
<!-- Created with Inkscape (http://www.inkscape.org/) -->

<svg
   xmlns:dc="http://purl.org/dc/elements/1.1/"
   xmlns:cc="http://creativecommons.org/ns#"
   xmlns:rdf="http://www.w3.org/1999/02/22-rdf-syntax-ns#"
   xmlns:svg="http://www.w3.org/2000/svg"
   xmlns="http://www.w3.org/2000/svg"
   xmlns:sodipodi="http://sodipodi.sourceforge.net/DTD/sodipodi-0.dtd"
   xmlns:inkscape="http://www.inkscape.org/namespaces/inkscape"
   width="141.11111mm"
   height="141.11111mm"
   viewBox="0 0 500.00001 500.00001"
   id="svg2"
   version="1.1"
   inkscape:version="0.91 r13725"
   inkscape:export-filename="/home/mark/gate-top/externals/projects/myHarvest/submit.myharvest/grails-app/assets/images/aqua_circle.png"
   inkscape:export-xdpi="25.200001"
   inkscape:export-ydpi="25.200001"
   sodipodi:docname="aquaponics.svg">
  <defs
     id="defs4" />
  <sodipodi:namedview
     id="base"
     pagecolor="#ffffff"
     bordercolor="#666666"
     borderopacity="1.0"
     inkscape:pageopacity="0.0"
     inkscape:pageshadow="2"
     inkscape:zoom="3.12"
     inkscape:cx="250"
     inkscape:cy="250.00002"
     inkscape:document-units="px"
     inkscape:current-layer="layer1"
     showgrid="false"
     fit-margin-top="0"
     fit-margin-left="0"
     fit-margin-right="0"
     fit-margin-bottom="0"
     inkscape:window-width="3070"
     inkscape:window-height="1752"
     inkscape:window-x="130"
     inkscape:window-y="48"
     inkscape:window-maximized="1" />
  <metadata
     id="metadata7">
    <rdf:RDF>
      <cc:Work
         rdf:about="">
        <dc:format>image/svg+xml</dc:format>
        <dc:type
           rdf:resource="http://purl.org/dc/dcmitype/StillImage" />
        <dc:title />
      </cc:Work>
    </rdf:RDF>
  </metadata>
  <g
     inkscape:label="Layer 1"
     inkscape:groupmode="layer"
     id="layer1"
     transform="translate(-946.68921,-156.31696)">
    <rect
       style="color:#000000;clip-rule:nonzero;display:inline;overflow:visible;visibility:visible;opacity:1;isolation:auto;mix-blend-mode:normal;color-interpolation:sRGB;color-interpolation-filters:linearRGB;solid-color:#000000;solid-opacity:1;fill:#40a4df;fill-opacity:1;fill-rule:nonzero;stroke:none;stroke-width:5;stroke-linecap:butt;stroke-linejoin:miter;stroke-miterlimit:4;stroke-dasharray:none;stroke-dashoffset:0;stroke-opacity:1;color-rendering:auto;image-rendering:auto;shape-rendering:auto;text-rendering:auto;enable-background:accumulate"
       id="rect12820"
       width="500"
       height="500"
       x="946.68921"
       y="156.31696"
       inkscape:export-filename="/home/mark/gate-top/externals/projects/myHarvest/submit.myharvest/grails-app/assets/images/hydro_circle.png"
       inkscape:export-xdpi="25.200001"
       inkscape:export-ydpi="25.200001" />
    <rect
       style="color:#000000;clip-rule:nonzero;display:inline;overflow:visible;visibility:visible;opacity:1;isolation:auto;mix-blend-mode:normal;color-interpolation:sRGB;color-interpolation-filters:linearRGB;solid-color:#000000;solid-opacity:1;fill:#ffffff;fill-opacity:1;fill-rule:nonzero;stroke:none;stroke-width:5;stroke-linecap:butt;stroke-linejoin:miter;stroke-miterlimit:4;stroke-dasharray:none;stroke-dashoffset:0;stroke-opacity:1;color-rendering:auto;image-rendering:auto;shape-rendering:auto;text-rendering:auto;enable-background:accumulate"
       id="rect12822"
       width="192.31706"
       height="209.80025"
       x="1105.6963"
       y="253.7735" />
    <path
       style="fill:#40a4df;fill-opacity:1"
       d="m 1080.107,448.40964 c -3.3201,-5.93601 25.6423,1.43679 30.8273,2.92375 2.8809,0.82622 7.5188,3.1264 10.3067,5.1115 2.7878,1.98509 6.9213,4.3513 9.1857,5.25823 3.1008,1.24193 17.2679,3.80089 6.6345,6.0247 l -41.3163,8.64059 z m 63.1785,13.67859 c 1.9232,-0.62535 7.0371,-3.24673 11.3642,-5.8253 12.8049,-7.63059 15.0448,-7.6124 30.4811,0.24748 l 13.8718,7.06335 -66.4507,5.39377 c -16.2307,1.31743 8.8104,-6.25395 10.7336,-6.8793 z m 74.2815,-4.99536 c 13.7399,-7.78613 19.8256,-7.96072 31.0708,-0.89139 4.5593,2.86622 9.4696,5.63541 10.912,6.15378 1.4423,0.51834 24.3718,5.01339 9.0051,4.25216 l -62.3293,-3.08763 11.3414,-6.42698 z m 54.2212,5.19387 c 1.4423,-0.55605 5.7035,-2.94662 9.4693,-5.31237 3.7659,-2.36578 9.0764,-4.94081 11.8013,-5.72231 4.841,-1.38837 28.7181,-6.4224 23.554,-2.13161 l -40.6348,33.76376 -16.2008,-14.70982 c -7.9331,-0.0759 10.5686,-5.33172 12.011,-5.88774 z m -149.4827,-15.25685 c -5.7695,-3.3774 -11.8668,-6.15057 -13.5496,-6.16262 -2.4004,-0.0171 -31.4921,-5.79366 -31.4921,-11.2801 0,-8.84563 30.4775,-4.68914 44.9256,3.39071 6.0182,3.36555 13.1512,6.11918 15.8511,6.11918 2.7,0 9.9957,-2.84463 16.2127,-6.32141 13.5339,-7.56858 19.6426,-7.40871 32.6732,0.85509 11.0966,7.03721 16.9159,6.91535 31.1773,-0.65286 6.342,-3.36554 13.6624,-6.11916 16.2676,-6.11916 2.6052,0 9.6606,2.75362 15.6787,6.11916 6.0182,3.36555 13.099,6.11918 15.735,6.11918 2.6361,0 9.7169,-2.75363 15.735,-6.11918 14.4482,-8.07985 35.9222,-8.80074 35.9222,0.0449 0,5.10597 -20.1496,7.82263 -22.099,7.82263 -1.4684,0 -8.11,2.84978 -14.7589,6.33285 -14.0935,7.38284 -19.0444,7.21222 -31.5245,-1.08638 -10.7395,-7.14122 -18.2622,-6.93752 -32.2282,0.8727 -6.0181,3.36554 -12.7577,6.11917 -14.9768,6.11917 -2.2192,0 -8.9588,-2.75363 -14.977,-6.11917 -13.8093,-7.7226 -20.3927,-7.85484 -32.5883,-0.65461 -13.5308,7.98862 -19.3437,8.11946 -31.984,0.71993 z m 0.5354,-23.64308 c -4.5134,-2.83459 -10.2174,-5.65856 -12.6755,-6.27549 -3.8355,-0.96266 -22.9502,-2.08627 -22.9502,-7.92549 0,-3.7421 19.2956,-6.80381 20.2911,-6.80381 0.9955,0 7.7498,3.147 15.0095,6.99334 7.2598,3.84634 14.2458,6.99334 15.5247,6.99334 1.2788,0 8.4073,-3.22242 15.841,-7.16095 15.5986,-8.26445 19.1705,-8.21794 32.6394,0.42504 5.8135,3.73051 10.679,5.4644 15.3339,5.4644 4.6548,0 9.5203,-1.73389 15.3338,-5.4644 13.5023,-8.66441 17.1197,-8.71231 32.831,-0.43476 7.4857,3.94387 14.5939,7.17067 15.7959,7.17067 1.2021,0 7.1681,-2.64054 13.2579,-5.86788 6.0898,-3.22732 12.8425,-6.42734 15.006,-7.11115 3.6265,-1.14614 33.788,-1.17634 33.788,5.20446 0,5.91924 -30.4852,7.55388 -34.2115,8.48911 -2.3965,0.60149 -8.0578,3.4404 -12.5806,6.30871 -10.9292,6.93105 -17.5915,6.73835 -31.2574,-0.90407 -6.0182,-3.36555 -13.0989,-6.11918 -15.735,-6.11918 -2.6361,0 -9.7169,2.75363 -15.735,6.11918 -6.0994,3.41095 -13.3989,6.11917 -16.4931,6.11917 -3.0943,0 -10.3938,-2.70822 -16.4932,-6.11917 -6.0182,-3.36555 -13.0989,-6.11918 -15.735,-6.11918 -2.6361,0 -9.7169,2.75363 -15.735,6.11918 -13.5413,7.57273 -20.1209,7.76322 -31.0507,0.89893 z m 0.5141,-23.77568 c -6.1538,-3.42514 -12.6445,-6.33719 -14.4238,-6.47121 -3.0894,-0.23272 -62.8995,0.79699 -36.8801,-60.32753 l 33.6452,-79.03888 168.954,-5.48016 c 95.0664,-3.08356 -10.9321,7.63072 -15.0885,8.45478 -19.6162,3.88915 -47.6465,18.43061 -49.8213,31.67281 -0.6817,4.15153 -0.7966,7.99118 -0.2553,8.53255 0.5414,0.54136 5.5367,-2.95909 11.1007,-7.77879 9.2827,-8.04096 30.9624,-21.41451 34.715,-21.41451 0.8688,0 -2.3435,2.64373 -7.1386,5.87496 -21.9359,14.78172 -43.1994,45.036 -48.0399,68.35206 -1.1067,5.33119 -2.2747,9.69309 -2.5956,9.69309 -0.3208,0 -3.1282,-4.5093 -6.2386,-10.02067 -6.7671,-11.99065 -23.687,-30.1092 -35.741,-38.27305 -4.7951,-3.24758 -8.0522,-5.90469 -7.2381,-5.90469 3.7315,0 22.7028,11.64165 33.2845,20.42489 6.4313,5.33822 12.1256,9.27346 12.6541,8.74498 2.4465,-2.44652 -1.8595,-15.4006 -7.1888,-21.62673 -11.3729,-13.28656 -36.8089,-22.93253 -54.8737,-20.80937 -5.2133,0.61274 -10.1315,1.51741 -10.9292,2.0104 -0.7976,0.49298 1.1141,4.2559 4.2484,8.36204 3.1343,4.10613 8.3395,14.46246 11.567,23.01405 3.8954,10.32102 8.0878,17.92844 12.47,22.62782 6.3714,6.83253 6.9873,7.07935 17.6563,7.07556 6.08,-0.002 12.2346,-0.39554 13.677,-0.87416 1.8564,-0.61604 4.3332,2.62556 8.4788,11.09705 5.0706,10.36192 5.9842,14.29038 6.8105,29.28462 0.5248,9.52452 0.3367,17.31732 -0.4179,17.31732 -0.7547,0 -5.0567,-2.26709 -9.5598,-5.03796 -13.3793,-8.23233 -16.5742,-8.2575 -32.3172,-0.25462 -7.6178,3.87249 -15.0825,7.0319 -16.588,7.0209 -1.5055,-0.011 -7.7722,-2.8224 -13.9261,-6.24755 z m 126.579,-0.72578 c -15.8445,-8.05446 -19.017,-8.0342 -32.4108,0.20705 -4.5032,2.77087 -8.6907,5.03796 -9.3056,5.03796 -2.4202,0 -1.0945,-31.63836 1.5959,-38.08246 1.774,-4.2493 1.9556,-5.74335 0.5244,-4.31468 -1.204,1.20198 -2.7437,2.18542 -3.4215,2.18542 -3.6508,0 4.5427,-33.45189 10.5921,-43.24409 3.1181,-5.0474 3.9797,-5.46998 8.0204,-3.93375 6.5715,2.49852 15.9576,2.11085 21.779,-0.89955 7.3755,-3.81399 12.8498,-11.94943 19.9683,-29.67511 3.4649,-8.62762 8.6511,-18.61256 11.525,-22.18875 2.8739,-3.57619 1.3718,-8.0622 1.3718,-8.5355 0,-0.47331 -7.0221,-5.04175 -9.6665,-5.44234 -2.6444,-0.40058 4.6185,-19.24182 10.8467,-17.40927 l 28.1858,26.50677 5.5337,60.92068 c 6.2243,68.5223 -17.0979,72.88144 -20.6327,73.14766 -1.9652,0.14804 -7.3329,2.58254 -11.9281,5.41001 -13.5743,8.3524 -16.6986,8.38212 -32.5779,0.30995 z"
       id="path12807"
       inkscape:connector-curvature="0"
       sodipodi:nodetypes="sccsscsssscsscsssccccsssccccscssssssssssssssssssssssssssssssssssssssssssssssscssccssssssssscsscsssscssssscssssscssssssssscscsss" />
    <rect
       style="color:#000000;clip-rule:nonzero;display:inline;overflow:visible;visibility:visible;opacity:1;isolation:auto;mix-blend-mode:normal;color-interpolation:sRGB;color-interpolation-filters:linearRGB;solid-color:#000000;solid-opacity:1;fill:#40a4df;fill-opacity:1;fill-rule:nonzero;stroke:none;stroke-width:5;stroke-linecap:butt;stroke-linejoin:miter;stroke-miterlimit:4;stroke-dasharray:none;stroke-dashoffset:0;stroke-opacity:1;color-rendering:auto;image-rendering:auto;shape-rendering:auto;text-rendering:auto;enable-background:accumulate"
       id="rect4136"
       width="110.70205"
       height="36.521103"
       x="1097.3938"
       y="244.57733" />
    <path
       id="XMLID_5_"
       d="m 1252.6998,491.11599 c -8.0718,0 -20.69,4.84947 -26.7359,11.77273 -8.1675,-7.1785 -25.8904,-13.25629 -42.2255,-17.18053 -5.9342,-8.96514 -6.4606,-15.87244 -5.9023,-19.97216 0.1436,-1.1007 -0.2393,-2.18545 -1.0528,-2.95116 -0.8136,-0.74975 -1.9303,-1.0688 -2.999,-0.84546 -10.6561,2.15354 -16.5106,11.54939 -19.5575,19.06288 -0.1276,0 -0.2871,-0.0159 -0.4147,-0.0159 -16.4946,0 -40.2953,13.36795 -40.2953,29.87849 0,16.51053 23.8007,29.87848 40.2953,29.87848 0.5423,0 1.1485,-0.0159 1.8026,-0.0479 5.9502,3.2064 12.9213,5.18447 18.0579,5.18447 6.3011,0 3.2223,-2.96711 -0.5105,-7.56135 18.5205,-3.54138 42.8157,-10.70393 52.8018,-19.47764 6.0299,6.93921 18.6641,11.78868 26.7359,11.78868 10.9113,0 -6.3011,-8.85347 -6.3011,-19.76478 0,-10.89536 17.2124,-19.74884 6.3011,-19.74884 z m -120.7263,20.09978 c -2.5204,0 -4.5623,-2.04188 -4.5623,-4.56233 0,-2.52045 2.0419,-4.56233 4.5623,-4.56233 2.5204,0 4.5623,2.04188 4.5623,4.56233 0,2.52045 -2.0419,4.56233 -4.5623,4.56233 z"
       inkscape:connector-curvature="0"
       style="fill:#ffffff;fill-opacity:1" />
  </g>
</svg>
