<?xml version="1.0" encoding="UTF-8" standalone="no"?>
<!-- Created with Inkscape (http://www.inkscape.org/) -->

<svg
   xmlns:dc="http://purl.org/dc/elements/1.1/"
   xmlns:cc="http://creativecommons.org/ns#"
   xmlns:rdf="http://www.w3.org/1999/02/22-rdf-syntax-ns#"
   xmlns:svg="http://www.w3.org/2000/svg"
   xmlns="http://www.w3.org/2000/svg"
   xmlns:sodipodi="http://sodipodi.sourceforge.net/DTD/sodipodi-0.dtd"
   xmlns:inkscape="http://www.inkscape.org/namespaces/inkscape"
   width="141.11111mm"
   height="141.11111mm"
   viewBox="0 0 500.00001 500.00001"
   id="svg2"
   version="1.1"
   inkscape:version="0.91 r13725"
   inkscape:export-filename="/home/mark/gate-top/externals/projects/myHarvest/submit.myharvest/grails-app/assets/images/hydro_circle.png"
   inkscape:export-xdpi="25.200001"
   inkscape:export-ydpi="25.200001"
   sodipodi:docname="hydroponics.svg">
  <defs
     id="defs4" />
  <sodipodi:namedview
     id="base"
     pagecolor="#ffffff"
     bordercolor="#666666"
     borderopacity="1.0"
     inkscape:pageopacity="0.0"
     inkscape:pageshadow="2"
     inkscape:zoom="3.12"
     inkscape:cx="250"
     inkscape:cy="250.00002"
     inkscape:document-units="px"
     inkscape:current-layer="layer1"
     showgrid="false"
     fit-margin-top="0"
     fit-margin-left="0"
     fit-margin-right="0"
     fit-margin-bottom="0"
     inkscape:window-width="3070"
     inkscape:window-height="1752"
     inkscape:window-x="130"
     inkscape:window-y="48"
     inkscape:window-maximized="1" />
  <metadata
     id="metadata7">
    <rdf:RDF>
      <cc:Work
         rdf:about="">
        <dc:format>image/svg+xml</dc:format>
        <dc:type
           rdf:resource="http://purl.org/dc/dcmitype/StillImage" />
        <dc:title />
      </cc:Work>
    </rdf:RDF>
  </metadata>
  <g
     inkscape:label="Layer 1"
     inkscape:groupmode="layer"
     id="layer1"
     transform="translate(-946.68921,-156.31696)">
    <rect
       style="color:#000000;clip-rule:nonzero;display:inline;overflow:visible;visibility:visible;opacity:1;isolation:auto;mix-blend-mode:normal;color-interpolation:sRGB;color-interpolation-filters:linearRGB;solid-color:#000000;solid-opacity:1;fill:#40a4df;fill-opacity:1;fill-rule:nonzero;stroke:none;stroke-width:5;stroke-linecap:butt;stroke-linejoin:miter;stroke-miterlimit:4;stroke-dasharray:none;stroke-dashoffset:0;stroke-opacity:1;color-rendering:auto;image-rendering:auto;shape-rendering:auto;text-rendering:auto;enable-background:accumulate"
       id="rect12820"
       width="500"
       height="500"
       x="946.68921"
       y="156.31696" />
    <rect
       style="color:#000000;clip-rule:nonzero;display:inline;overflow:visible;visibility:visible;opacity:1;isolation:auto;mix-blend-mode:normal;color-interpolation:sRGB;color-interpolation-filters:linearRGB;solid-color:#000000;solid-opacity:1;fill:#ffffff;fill-opacity:1;fill-rule:nonzero;stroke:none;stroke-width:5;stroke-linecap:butt;stroke-linejoin:miter;stroke-miterlimit:4;stroke-dasharray:none;stroke-dashoffset:0;stroke-opacity:1;color-rendering:auto;image-rendering:auto;shape-rendering:auto;text-rendering:auto;enable-background:accumulate"
       id="rect12822"
       width="264.91599"
       height="288.99899"
       x="1064.2312"
       y="261.81744" />
    <path
       style="fill:#40a4df;fill-opacity:1"
       d="m 1028.9821,529.92794 c -4.5734,-8.17683 35.3222,1.97918 42.4645,4.02746 3.9684,1.13811 10.3572,4.3066 14.1975,7.04106 3.8402,2.73446 9.5341,5.99391 12.6533,7.2432 4.2713,1.71075 23.7864,5.23571 9.1389,8.29899 l -56.913,11.90238 z m 87.0282,18.84221 c 2.6492,-0.86142 9.6935,-4.47236 15.6541,-8.02433 17.6387,-10.51111 20.7242,-10.48606 41.9876,0.3409 l 19.1084,9.72973 -91.5356,7.4299 c -22.3577,1.81476 12.1363,-8.61479 14.7855,-9.4762 z m 102.3225,-6.88109 c 18.9266,-10.72536 27.3096,-10.96586 42.7998,-1.22789 6.2804,3.94821 13.0444,7.76275 15.0313,8.4768 1.9868,0.71402 33.5721,6.90593 12.4045,5.85734 l -85.8584,-4.2532 15.6228,-8.85313 z m 74.6894,7.15453 c 1.9868,-0.76595 7.8566,-4.05895 13.044,-7.31777 5.1874,-3.25885 12.5026,-6.80595 16.2562,-7.88245 6.6684,-1.91248 39.559,-8.84683 32.4456,-2.93629 l -55.9744,46.50944 -22.3165,-20.26271 c -10.9278,-0.10452 14.5582,-7.34443 16.5451,-8.11034 z m -205.9118,-21.01625 c -7.9475,-4.65236 -16.3465,-8.47239 -18.6645,-8.48898 -3.3065,-0.0236 -43.3803,-7.98075 -43.3803,-15.5383 0,-12.18482 41.9827,-6.45926 61.8849,4.6707 8.29,4.63603 18.1157,8.42914 21.8348,8.42914 3.7192,0 13.769,-3.91846 22.333,-8.70771 18.6428,-10.42569 27.0576,-10.20547 45.0072,1.17787 15.2855,9.69374 23.3015,9.52588 42.9466,-0.8993 8.736,-4.63602 18.8199,-8.42913 22.4085,-8.42913 3.5886,0 13.3074,3.79311 21.5974,8.42913 8.29,4.63603 18.0437,8.42914 21.6749,8.42914 3.6312,0 13.3849,-3.79311 21.6749,-8.42914 19.9023,-11.12996 49.4826,-12.12299 49.4826,0.0618 0,7.03345 -27.7559,10.77564 -30.4412,10.77564 -2.0228,0 -11.1715,3.92557 -20.3304,8.72348 -19.4137,10.16983 -26.2336,9.9348 -43.4249,-1.49649 -14.7935,-9.83699 -25.156,-9.5564 -44.3941,1.20214 -8.29,4.63603 -17.5737,8.42914 -20.6306,8.42914 -3.0569,0 -12.3407,-3.79311 -20.6307,-8.42914 -19.0222,-10.63784 -28.0909,-10.82 -44.8902,-0.90172 -18.6387,11.00429 -26.6459,11.18452 -44.0579,0.9917 z m 0.7375,-32.56824 c -6.2172,-3.90464 -14.0744,-7.79465 -17.4604,-8.64447 -5.2834,-1.32606 -31.6139,-2.87383 -31.6139,-10.91733 0,-5.15472 26.5797,-9.37222 27.951,-9.37222 1.3713,0 10.6753,4.33498 20.6755,9.6333 10.0003,5.29831 19.6236,9.6333 21.3852,9.6333 1.7616,0 11.5811,-4.43888 21.8209,-9.86418 21.4871,-11.38425 26.4073,-11.32018 44.9606,0.58549 8.0081,5.13876 14.7104,7.52718 21.1224,7.52718 6.412,0 13.1142,-2.38842 21.1223,-7.52718 18.5994,-11.93519 23.5823,-12.00117 45.2246,-0.59888 10.3115,5.43266 20.103,9.87757 21.7588,9.87757 1.6558,0 9.874,-3.63734 18.2626,-8.08298 8.3887,-4.44563 17.6905,-8.85364 20.6708,-9.79558 4.9954,-1.57881 46.5428,-1.62041 46.5428,7.16912 0,8.15372 -41.9933,10.40544 -47.1262,11.69371 -3.3012,0.82855 -11.0996,4.73914 -17.3297,8.69022 -15.0549,9.5475 -24.2322,9.28206 -43.057,-1.24535 -8.29,-4.63603 -18.0437,-8.42914 -21.6749,-8.42914 -3.6312,0 -13.3849,3.79311 -21.6749,8.42914 -8.4019,4.69857 -18.4569,8.42913 -22.7192,8.42913 -4.2623,0 -14.3174,-3.73056 -22.7192,-8.42913 -8.2901,-4.63603 -18.0437,-8.42914 -21.675,-8.42914 -3.6312,0 -13.3849,3.79311 -21.6749,8.42914 -18.6531,10.43141 -27.7164,10.6938 -42.7722,1.23828 z m 0.7082,-32.75091 c -8.4769,-4.71812 -17.4178,-8.72945 -19.8687,-8.91407 -4.2556,-0.32057 -86.64389,1.09786 -50.8022,-83.10092 l 46.3461,-108.87574 232.7334,-7.5489 c 130.9537,-4.24759 -15.0589,10.51128 -20.7843,11.64643 -27.0212,5.35728 -65.6328,25.38808 -68.6286,43.62917 -0.9391,5.71871 -1.0974,11.00781 -0.3517,11.75354 0.7458,0.74573 7.6268,-4.07613 15.2911,-10.71525 12.787,-11.07638 42.6507,-29.49839 47.8198,-29.49839 1.1968,0 -3.2281,3.64172 -9.8333,8.09273 -30.2166,20.36176 -59.5071,62.03691 -66.1748,94.15468 -1.5245,7.3437 -3.1334,13.35219 -3.5754,13.35219 -0.442,0 -4.3091,-6.21153 -8.5937,-13.80342 -9.3217,-16.51708 -32.6287,-41.47531 -49.2331,-52.72098 -6.6052,-4.47352 -11.0919,-8.13368 -9.9704,-8.13368 5.1401,0 31.273,16.03632 45.8492,28.1352 8.8591,7.35338 16.703,12.77415 17.431,12.04617 3.37,-3.37007 -2.5614,-21.21426 -9.9026,-29.79073 -15.666,-18.30218 -50.7041,-31.58946 -75.5882,-28.66482 -7.1814,0.84404 -13.9562,2.09023 -15.055,2.76932 -1.0987,0.67908 1.5347,5.86248 5.8522,11.51867 4.3175,5.65618 11.4876,19.92198 15.9335,31.70176 5.3659,14.21717 11.1409,24.69636 17.1774,31.16973 8.7765,9.41179 9.6249,9.75178 24.3214,9.74656 8.3752,-0.003 16.8532,-0.54485 18.84,-1.20416 2.5573,-0.84859 5.969,3.61671 11.6795,15.28615 6.9848,14.2735 8.2433,19.68494 9.3815,40.33944 0.7229,13.11999 0.4638,23.85454 -0.5757,23.85454 -1.0396,0 -6.9655,-3.1229 -13.1686,-6.93977 -18.4299,-11.34 -22.8308,-11.37467 -44.5167,-0.35074 -10.4936,5.33435 -20.7761,9.68642 -22.8499,9.67126 -2.0739,-0.0152 -10.7063,-3.88784 -19.1832,-8.60597 z m 174.362,-0.99976 c -21.8257,-11.09499 -26.1958,-11.06707 -44.6457,0.28521 -6.2031,3.81687 -11.9714,6.93977 -12.8184,6.93977 -3.3339,0 -1.5077,-43.58171 2.1983,-52.45843 2.4437,-5.85339 2.6938,-7.91144 0.7224,-5.94346 -1.6585,1.65573 -3.7795,3.01041 -4.7131,3.01041 -5.029,0 6.2576,-46.07984 14.5906,-59.56856 4.2952,-6.95277 5.482,-7.53488 11.048,-5.41873 9.0523,3.44171 21.9815,2.9077 30.0005,-1.23912 10.1597,-5.25375 17.7006,-16.46029 27.5063,-40.87734 4.7728,-11.88451 11.9168,-25.63873 15.8756,-30.56492 3.9588,-4.92619 1.8897,-11.10565 1.8897,-11.75762 0,-0.65198 -9.673,-6.94499 -13.3156,-7.4968 -3.6426,-0.5518 6.362,-26.50552 14.9413,-23.9812 l 38.8258,36.51297 7.6227,83.918 c 8.5739,94.38918 -23.5524,100.39388 -28.4215,100.7606 -2.7071,0.20392 -10.101,3.55744 -16.4309,7.45227 -18.6986,11.50539 -23.0023,11.54634 -44.876,0.42695 z"
       id="path12807"
       inkscape:connector-curvature="0"
       sodipodi:nodetypes="sccsscsssscsscsssccccsssccccscssssssssssssssssssssssssssssssssssssssssssssssscssccssssssssscsscsssscssssscssssscssssssssscscsss" />
    <rect
       style="color:#000000;clip-rule:nonzero;display:inline;overflow:visible;visibility:visible;opacity:1;isolation:auto;mix-blend-mode:normal;color-interpolation:sRGB;color-interpolation-filters:linearRGB;solid-color:#000000;solid-opacity:1;fill:#40a4df;fill-opacity:1;fill-rule:nonzero;stroke:none;stroke-width:5;stroke-linecap:butt;stroke-linejoin:miter;stroke-miterlimit:4;stroke-dasharray:none;stroke-dashoffset:0;stroke-opacity:1;color-rendering:auto;image-rendering:auto;shape-rendering:auto;text-rendering:auto;enable-background:accumulate"
       id="rect4723"
       width="181.41026"
       height="73.397438"
       x="1031.9457"
       y="217.85544" />
  </g>
</svg>
